<svg width="256" height="256" viewBox="0 0 256 256" fill="none" xmlns="http://www.w3.org/2000/svg">
  <defs>
    <linearGradient id="bg" x1="36" y1="28" x2="222" y2="232" gradientUnits="userSpaceOnUse">
      <stop stop-color="#0F172A"/>
      <stop offset="0.55" stop-color="#102A5C"/>
      <stop offset="1" stop-color="#0B1220"/>
    </linearGradient>
    <linearGradient id="surface" x1="74" y1="68" x2="176" y2="182" gradientUnits="userSpaceOnUse">
      <stop stop-color="#F8FBFF"/>
      <stop offset="1" stop-color="#DCEBFF"/>
    </linearGradient>
    <linearGradient id="accent" x1="128" y1="144" x2="178" y2="210" gradientUnits="userSpaceOnUse">
      <stop stop-color="#F97316"/>
      <stop offset="1" stop-color="#FBBF24"/>
    </linearGradient>
    <linearGradient id="signal" x1="78" y1="56" x2="176" y2="128" gradientUnits="userSpaceOnUse">
      <stop stop-color="#38BDF8"/>
      <stop offset="1" stop-color="#2563EB"/>
    </linearGradient>
    <filter id="shadow" x="22" y="22" width="212" height="212" filterUnits="userSpaceOnUse" color-interpolation-filters="sRGB">
      <feFlood flood-opacity="0" result="BackgroundImageFix"/>
      <feColorMatrix in="SourceAlpha" type="matrix" values="0 0 0 0 0 0 0 0 0 0 0 0 0 0 0 0 0 0 127 0" result="hardAlpha"/>
      <feOffset dy="14"/>
      <feGaussianBlur stdDeviation="12"/>
      <feComposite in2="hardAlpha" operator="out"/>
      <feColorMatrix type="matrix" values="0 0 0 0 0.0117647 0 0 0 0 0.0509804 0 0 0 0 0.145098 0 0 0 0.28 0"/>
      <feBlend mode="normal" in2="BackgroundImageFix" result="effect1_dropShadow_1_1"/>
      <feBlend mode="normal" in="SourceGraphic" in2="effect1_dropShadow_1_1" result="shape"/>
    </filter>
  </defs>

  <g filter="url(#shadow)">
    <rect x="32" y="28" width="192" height="192" rx="52" fill="url(#bg)"/>
    <rect x="33" y="29" width="190" height="190" rx="51" stroke="white" stroke-opacity="0.08" stroke-width="2"/>
  </g>

  <path d="M78 76C78 67.1634 85.1634 60 94 60H162C170.837 60 178 67.1634 178 76V142C178 150.837 170.837 158 162 158H94C85.1634 158 78 150.837 78 142V76Z" fill="url(#surface)"/>
  <path d="M96 84H160" stroke="url(#signal)" stroke-width="12" stroke-linecap="round"/>
  <path d="M96 108H160" stroke="#A5B4FC" stroke-width="10" stroke-linecap="round" opacity="0.9"/>
  <path d="M96 130H136" stroke="#CBD5E1" stroke-width="10" stroke-linecap="round"/>

  <path d="M128 132L171 150V166C171 187.631 155.827 204.673 128 214C100.173 204.673 85 187.631 85 166V150L128 132Z" fill="url(#accent)"/>
  <path d="M110 170L121.5 181.5L146 156.5" stroke="white" stroke-width="12" stroke-linecap="round" stroke-linejoin="round"/>
</svg>
